<?xml version="1.0" encoding="utf-8"?>
<!-- Generator: Adobe Illustrator 18.1.1, SVG Export Plug-In . SVG Version: 6.00 Build 0)  -->
<svg version="1.1" id="Layer_1" xmlns="http://www.w3.org/2000/svg" xmlns:xlink="http://www.w3.org/1999/xlink" x="0px" y="0px"
	 width="218.4px" height="91.2px" viewBox="-473.5 467 218.4 91.2" enable-background="new -473.5 467 218.4 91.2"
	 xml:space="preserve">
<g>
	<path fill="#FFFFFF" d="M-326.5,498.4c1.6,2,3.2,4.8,3.2,8.8c0,9.7-7.6,15.3-18.5,15.3c-2.8,0-5.3-0.3-6.9-0.8l-2.9,4.6l8.5,0.5
		c15.1,1,23.9,1.4,23.9,13c0,10-8.8,15.7-23.9,15.7c-15.8,0-21.8-4-21.8-10.9c0-3.9,1.7-6,4.8-8.9c-2.9-1.2-3.8-3.4-3.8-5.7
		c0-1.9,1-3.7,2.5-5.3c1.6-1.7,3.3-3.3,5.4-5.2c-4.3-2.1-7.5-6.6-7.5-13.1c0-10,6.6-16.9,19.9-16.9c3.7,0,6,0.3,8,0.9h17v7.4
		L-326.5,498.4z M-352.2,538c-1.1,1.4-2.3,2.9-2.3,4.6c0,3.5,4.4,4.5,10.5,4.5c5,0,11.9-0.4,11.9-5c0-2.8-3.3-3-7.5-3.2L-352.2,538z
		 M-342.6,498.1c-4.8,0-8.4,2.4-8.4,8c0,4.3,2.4,7.2,8.1,7.2c4.9,0,8.2-2.9,8.2-7.4C-334.7,500.8-337.7,498.1-342.6,498.1z"/>
	<path fill="#FFFFFF" d="M-314.4,534.8V528l4.4-0.6c1.2-0.2,1.4-0.4,1.4-1.7V500c0-1-0.3-1.6-1.1-1.8l-4.7-1.7l1-7h18v36.1
		c0,1.4,0.1,1.6,1.4,1.7l4.4,0.6v6.9H-314.4z M-303.1,482.5c-5,0-7.8-2.9-7.8-7.8c0-5,2.9-7.7,7.8-7.7c5,0,7.9,2.7,7.9,7.7
		C-295.2,479.7-298.1,482.5-303.1,482.5z"/>
	<path fill="#FFFFFF" d="M-255.1,531.5c-3.7,1.8-9.2,3.5-14.2,3.5c-10.4,0-14.3-4.2-14.3-14v-22.8c0-0.5,0-0.9-0.7-0.9h-6.1v-7.7
		c7.7-0.9,10.7-4.7,11.7-14.2h8.3v12.4c0,0.6,0,0.9,0.7,0.9h12.3v8.7h-13v20.8c0,5.1,1.2,7.1,5.9,7.1c2.4,0,5-0.6,7-1.4
		L-255.1,531.5z"/>
	<g>
		<path fill="#F05133" d="M-384.1,508.6l-39.8-39.8c-2.3-2.3-6-2.3-8.3,0l-8.3,8.3l10.5,10.5c2.4-0.8,5.2-0.3,7.2,1.7
			c2,2,2.5,4.8,1.7,7.2l10.1,10.1c2.4-0.8,5.3-0.3,7.2,1.7c2.7,2.7,2.7,7.1,0,9.9c-2.7,2.7-7.1,2.7-9.9,0c-2.1-2.1-2.6-5.1-1.5-7.6
			l-9.4-9.4l0,24.8c0.7,0.3,1.3,0.8,1.8,1.3c2.7,2.7,2.7,7.1,0,9.9c-2.7,2.7-7.2,2.7-9.9,0c-2.7-2.7-2.7-7.2,0-9.9
			c0.7-0.7,1.5-1.2,2.3-1.5v-25c-0.8-0.3-1.6-0.8-2.3-1.5c-2.1-2.1-2.6-5.1-1.5-7.6l-10.3-10.3l-27.3,27.3c-2.3,2.3-2.3,6,0,8.3
			l39.8,39.8c2.3,2.3,6,2.3,8.3,0l39.6-39.6C-381.8,514.6-381.8,510.9-384.1,508.6z"/>
	</g>
</g>
</svg>
